<?xml version="1.0" standalone="no"?><!DOCTYPE svg PUBLIC "-//W3C//DTD SVG 1.1//EN" "http://www.w3.org/Graphics/SVG/1.1/DTD/svg11.dtd"><svg t="1714016079818" class="icon" viewBox="0 0 1024 1024" version="1.1" xmlns="http://www.w3.org/2000/svg" p-id="1462" xmlns:xlink="http://www.w3.org/1999/xlink" width="200" height="200"><path d="M141.019429 7.606857c21.869714 0 40.374857 7.387429 55.588571 22.235429 15.213714 14.848 22.820571 33.133714 22.820571 55.003428v59.684572c0 21.869714-7.606857 40.374857-22.820571 55.588571a75.629714 75.629714 0 0 1-55.588571 22.820572H78.994286c-21.065143 0-39.204571-7.606857-54.418286-22.820572a75.629714 75.629714 0 0 1-22.820571-55.588571V84.845714c0-21.869714 7.606857-40.228571 22.820571-55.003428A75.337143 75.337143 0 0 1 78.994286 7.606857h62.025143z m802.816 0c21.065143 0 39.204571 7.387429 54.418285 22.235429 15.213714 14.848 22.820571 33.133714 22.820572 55.003428v59.684572c0 21.869714-7.606857 40.374857-22.820572 55.588571a74.313143 74.313143 0 0 1-54.418285 22.820572H444.123429c-21.869714 0-40.374857-7.606857-55.588572-22.820572A75.629714 75.629714 0 0 1 365.714286 144.530286V84.845714c0-21.869714 7.606857-40.228571 22.820571-55.003428 15.213714-14.848 33.718857-22.235429 55.588572-22.235429h499.712zM141.019429 371.565714c21.869714 0 40.374857 7.606857 55.588571 22.820572 15.213714 15.213714 22.820571 33.718857 22.820571 55.588571v59.684572c0 21.065143-7.606857 39.204571-22.820571 54.418285a75.629714 75.629714 0 0 1-55.588571 22.820572H78.994286c-21.065143 0-39.204571-7.606857-54.418286-22.820572a74.313143 74.313143 0 0 1-22.820571-54.418285v-59.684572c0-21.869714 7.606857-40.374857 22.820571-55.588571 15.213714-15.213714 33.353143-22.820571 54.418286-22.820572h62.025143z m802.816 0c21.065143 0 39.204571 7.606857 54.418285 22.820572 15.213714 15.213714 22.820571 33.718857 22.820572 55.588571v59.684572c0 21.065143-7.606857 39.204571-22.820572 54.418285a74.313143 74.313143 0 0 1-54.418285 22.820572H444.123429c-21.869714 0-40.374857-7.606857-55.588572-22.820572A74.313143 74.313143 0 0 1 365.714286 509.659429v-59.684572c0-21.869714 7.606857-40.374857 22.820571-55.588571 15.213714-15.213714 33.718857-22.820571 55.588572-22.820572h499.712zM141.019429 736.694857c21.869714 0 40.374857 7.606857 55.588571 22.820572 15.213714 15.213714 22.820571 33.353143 22.820571 54.418285v59.684572c0 21.869714-7.606857 40.374857-22.820571 55.588571a75.629714 75.629714 0 0 1-55.588571 22.820572H78.994286c-21.065143 0-39.204571-7.606857-54.418286-22.820572a75.629714 75.629714 0 0 1-22.820571-55.588571v-59.684572c0-21.065143 7.606857-39.204571 22.820571-54.418285 15.213714-15.213714 33.353143-22.820571 54.418286-22.820572h62.025143z m802.816 0c21.065143 0 39.204571 7.606857 54.418285 22.820572 15.213714 15.213714 22.820571 33.353143 22.820572 54.418285v59.684572c0 21.869714-7.606857 40.374857-22.820572 55.588571a74.313143 74.313143 0 0 1-54.418285 22.820572H444.123429c-21.869714 0-40.374857-7.606857-55.588572-22.820572a75.629714 75.629714 0 0 1-22.820571-55.588571v-59.684572c0-21.065143 7.606857-39.204571 22.820571-54.418285 15.213714-15.213714 33.718857-22.820571 55.588572-22.820572h499.712z" fill="#515151" p-id="1463"></path></svg>